<svg viewBox="0 0 200 200" xmlns="http://www.w3.org/2000/svg">
  <path fill="#A7F0BA" d="M30.4,-50.6C42.3,-45.8,56.8,-43.4,64.8,-35.4C72.8,-27.4,74.3,-13.7,68.9,-3.1C63.4,7.4,51,14.8,43.4,23.7C35.9,32.5,33.2,42.7,26.8,45.3C20.3,47.9,10.2,42.9,-1.7,45.8C-13.5,48.7,-27.1,59.5,-38.4,59.7C-49.7,59.9,-58.9,49.6,-62.3,37.9C-65.7,26.2,-63.3,13.1,-66.4,-1.8C-69.4,-16.6,-77.9,-33.2,-75.8,-47.2C-73.7,-61.1,-61,-72.3,-46.6,-75.7C-32.2,-79.1,-16.1,-74.6,-3.4,-68.6C9.2,-62.7,18.5,-55.4,30.4,-50.6Z" transform="translate(100 100)" />
</svg>